<svg width="21" height="21" viewBox="0 0 21 21" fill="none" xmlns="http://www.w3.org/2000/svg">
<path d="M13.8499 10.5L19.1104 13.9251V7.07494L13.8499 10.5ZM7.15085 10.5L1.89035 13.9251V7.07494L7.15085 10.5ZM7.91945 11.0019L10.2715 12.5328C10.3408 12.5769 10.4206 12.6 10.5004 12.6C10.5802 12.6 10.66 12.5769 10.7293 12.5328L13.0813 11.0019L18.7618 14.7L19.0915 14.9142C18.9886 15.5064 18.472 15.96 17.8504 15.96H3.15035C2.52875 15.96 2.01215 15.5085 1.90925 14.9142L2.24105 14.7L7.91945 11.0019ZM10.5004 11.6781L2.24105 6.30004L1.90925 6.08584C2.01215 5.49154 2.52875 5.04004 3.15035 5.04004H17.8504C18.472 5.04004 18.9886 5.49364 19.0915 6.08584L18.7618 6.30004L10.5004 11.6781Z" fill="#B9B6E3"/>
</svg>
