<svg width="25" height="18" viewBox="0 0 25 18" fill="none" xmlns="http://www.w3.org/2000/svg">
<path d="M14.0252 11.7081C13.4273 12.1067 12.7328 12.3174 12.0167 12.3174C11.3007 12.3174 10.6061 12.1067 10.0082 11.7081L0.160019 5.14243C0.105653 5.10608 0.0522934 5.06825 0 5.02898L0 15.7875C0 17.021 1.001 18 2.21243 18H21.8209C23.0544 18 24.0333 16.999 24.0333 15.7875V5.02893C23.9809 5.06831 23.9275 5.10622 23.873 5.14262L14.0252 11.7081Z" fill="#3A3490"/>
<path d="M0.941151 3.97076L10.7893 10.5365C11.1621 10.785 11.5894 10.9093 12.0166 10.9093C12.4439 10.9093 12.8712 10.785 13.244 10.5365L23.0922 3.97076C23.6815 3.57811 24.0334 2.92095 24.0334 2.21168C24.0334 0.992127 23.0412 0 21.8217 0H2.21168C0.992175 4.69402e-05 1.16416e-06 0.992174 1.16416e-06 2.21285C-0.000364434 2.56078 0.0853855 2.90338 0.249603 3.21011C0.41382 3.51684 0.6514 3.77816 0.941151 3.97076Z" fill="#3A3490"/>
</svg>
