<svg width="15" height="15" viewBox="0 0 15 15" fill="none" xmlns="http://www.w3.org/2000/svg">
<path d="M7.504 14.0076C5.76667 14.0076 4.13361 13.331 2.90521 12.1024C1.6766 10.874 1 9.24092 1 7.50379C1 5.76667 1.6766 4.13361 2.90521 2.90521C4.13361 1.6766 5.76667 1 7.504 1C9.24112 1 10.8744 1.6766 12.1028 2.90521C13.3314 4.13361 14.008 5.76667 14.008 7.50379C14.008 9.24092 13.3314 10.874 12.1028 12.1024C10.8744 13.331 9.24112 14.0076 7.504 14.0076ZM7.504 1.40649C5.8752 1.40649 4.34417 2.04081 3.19259 3.19259C2.04081 4.34417 1.40649 5.8752 1.40649 7.50379C1.40649 9.13239 2.04081 10.6634 3.19259 11.815C4.34417 12.9668 5.8752 13.6011 7.504 13.6011C9.13259 13.6011 10.6638 12.9668 11.8154 11.815C12.9672 10.6634 13.6015 9.13239 13.6015 7.50379C13.6015 5.8752 12.9672 4.34417 11.8154 3.19259C10.6638 2.04081 9.13259 1.40649 7.504 1.40649Z" fill="white" stroke="white" stroke-width="0.4"/>
<path d="M8.31725 11.1623C8.24062 11.2443 8.11201 11.2487 8.02995 11.1721L5.17502 8.50752C5.10512 8.44228 5.06543 8.35095 5.06543 8.25532C5.06543 8.06479 5.21988 7.91034 5.41041 7.91034H6.69138C6.71963 7.91237 7.69134 7.99062 8.27566 7.45548C8.57301 7.18293 8.72381 6.78884 8.72381 6.28439C8.72381 5.61633 8.39009 5.14114 7.73219 4.87205C7.21636 4.66088 6.69646 4.65844 6.69138 4.65844H5.26867C5.15642 4.65844 5.06543 4.56745 5.06543 4.4552C5.06543 4.34295 5.15642 4.25195 5.26867 4.25195H6.69138C7.53484 4.25195 9.1303 4.67673 9.1303 6.28439C9.1303 6.90875 8.93437 7.40426 8.54821 7.75689C7.83015 8.41296 6.71983 8.32028 6.67288 8.31601C6.27685 8.31623 6.08578 8.80135 6.37531 9.07157L8.30742 10.8749C8.38954 10.9515 8.39395 11.0802 8.31725 11.1623Z" fill="white"/>
<path d="M5.06543 4.4552C5.06543 4.34295 5.15642 4.25195 5.26867 4.25195H9.74003C9.85228 4.25195 9.94328 4.34295 9.94328 4.4552C9.94328 4.56745 9.85228 4.65844 9.74003 4.65844H5.26867C5.15642 4.65844 5.06543 4.56745 5.06543 4.4552Z" fill="white"/>
<path d="M5.06543 5.67468C5.06543 5.56243 5.15642 5.47144 5.26867 5.47144H9.74003C9.85228 5.47144 9.94328 5.56243 9.94328 5.67468C9.94328 5.78693 9.85228 5.87792 9.74003 5.87792H5.26867C5.15642 5.87792 5.06543 5.78693 5.06543 5.67468Z" fill="white"/>
</svg>
