<svg width="17" height="22" viewBox="0 0 17 22" fill="none" xmlns="http://www.w3.org/2000/svg">
<path d="M8.24968 0C3.70136 0 0 3.72702 0 8.30926C0 14.8201 7.47421 21.5427 7.79228 21.825C7.918 21.9375 8.08077 21.9998 8.2495 22C8.41824 22.0002 8.58113 21.9382 8.70708 21.8259C9.02515 21.5427 16.4994 14.8201 16.4994 8.30926C16.4994 3.72702 12.798 0 8.24968 0ZM8.24968 12.8328C5.72253 12.8328 3.66652 10.7768 3.66652 8.24968C3.66652 5.72253 5.72253 3.66652 8.24968 3.66652C10.7768 3.66652 12.8328 5.72253 12.8328 8.24968C12.8328 10.7768 10.7768 12.8328 8.24968 12.8328Z" fill="#3A3490"/>
</svg>
