<svg width="13" height="17" viewBox="0 0 13 17" fill="none" xmlns="http://www.w3.org/2000/svg">
<path d="M0.5 6.375C0.5 4.82002 1.12973 3.32672 2.25391 2.22416C3.37842 1.12128 4.9056 0.5 6.5 0.5C8.0944 0.5 9.62158 1.12128 10.7461 2.22416C11.8703 3.32672 12.5 4.82002 12.5 6.375C12.5 7.32201 12.1339 8.43399 11.5389 9.60103C10.9482 10.7597 10.155 11.9285 9.35282 12.9775C8.55189 14.0249 7.74972 14.9429 7.14723 15.5994C6.88902 15.8808 6.66795 16.1137 6.5 16.2875C6.33205 16.1137 6.11098 15.8808 5.85277 15.5994C5.25028 14.9429 4.44811 14.0249 3.64718 12.9775C2.84499 11.9285 2.05177 10.7597 1.46108 9.60103C0.866118 8.43399 0.5 7.32201 0.5 6.375ZM3.29167 6.375C3.29167 7.21526 3.63209 8.01909 4.23482 8.61022C4.83721 9.20103 5.6522 9.53125 6.5 9.53125C7.3478 9.53125 8.16279 9.20103 8.76519 8.61022C9.36791 8.01909 9.70833 7.21526 9.70833 6.375C9.70833 5.53474 9.36791 4.73091 8.76519 4.13978C8.16279 3.54897 7.3478 3.21875 6.5 3.21875C5.6522 3.21875 4.83721 3.54897 4.23482 4.13978C3.63209 4.73091 3.29167 5.53474 3.29167 6.375Z" stroke="white"/>
</svg>
