<svg width="12" height="12" viewBox="0 0 12 12" fill="none" xmlns="http://www.w3.org/2000/svg">
<path d="M7.04667 6.33846C8.05778 5.72308 8.71111 4.50769 8.71111 3.38462C8.71111 1.78462 7.38889 0 5.6 0C3.81111 0 2.48889 1.78462 2.48889 3.38462C2.48889 4.50769 3.14222 5.72308 4.15333 6.33846C1.75778 6.96923 0 9.13846 0 11.6923C0 11.8615 0.14 12 0.311111 12H10.8889C11.06 12 11.2 11.8615 11.2 11.6923C11.2 9.13846 9.44222 6.96923 7.04667 6.33846ZM3.11111 3.38462C3.11111 1.8 4.43333 0.615385 5.6 0.615385C6.76667 0.615385 8.08889 1.8 8.08889 3.38462C8.08889 4.96923 6.76667 6.15385 5.6 6.15385C4.43333 6.15385 3.11111 4.96923 3.11111 3.38462ZM0.637778 11.3846C0.793333 8.81538 2.97111 6.76923 5.6 6.76923C8.22889 6.76923 10.4067 8.81538 10.5622 11.3846H0.637778Z" fill="white"/>
</svg>
