<svg width="21" height="21" viewBox="0 0 21 21" fill="none" xmlns="http://www.w3.org/2000/svg">
<path d="M4 8.375C4 6.68425 4.68482 5.06274 5.90381 3.86719C7.12279 2.67165 8.77609 2 10.5 2C12.2239 2 13.8772 2.67165 15.0962 3.86719C16.3152 5.06274 17 6.68425 17 8.375C17 12.625 10.5 19 10.5 19C10.5 19 4 12.625 4 8.375ZM7.79167 8.375C7.79167 9.07948 8.07701 9.75511 8.58492 10.2533C9.09283 10.7514 9.78171 11.0312 10.5 11.0312C11.2183 11.0312 11.9072 10.7514 12.4151 10.2533C12.923 9.75511 13.2083 9.07948 13.2083 8.375C13.2083 7.67052 12.923 6.99489 12.4151 6.49675C11.9072 5.9986 11.2183 5.71875 10.5 5.71875C9.78171 5.71875 9.09283 5.9986 8.58492 6.49675C8.07701 6.99489 7.79167 7.67052 7.79167 8.375Z" fill="#B9B6E3"/>
</svg>
