<svg width="39" height="39" viewBox="0 0 39 39" fill="none" xmlns="http://www.w3.org/2000/svg">
<path d="M23.0728 19.5004L38.2589 4.31371C39.247 3.32586 39.247 1.72861 38.2589 0.740884C37.271 -0.246961 35.6738 -0.246961 34.6861 0.740884L19.4997 15.9274L4.31396 0.740884C3.32566 -0.246961 1.72904 -0.246961 0.741221 0.740884C-0.247074 1.72873 -0.247074 3.32586 0.741221 4.31371L15.9269 19.5004L0.741339 34.6869C-0.246955 35.6747 -0.246955 37.272 0.741339 38.2597C0.975655 38.4947 1.25409 38.6811 1.56066 38.8081C1.86722 38.9351 2.19586 39.0004 2.52771 39C3.17441 39 3.82135 38.7524 4.31408 38.2597L19.4997 23.0732L34.6861 38.2597C34.9205 38.4947 35.1989 38.681 35.5055 38.808C35.812 38.9351 36.1407 39.0003 36.4725 39C37.1192 39 37.7661 38.7524 38.2589 38.2597C39.247 37.2719 39.247 35.6747 38.2589 34.6869L23.0728 19.5004Z" fill="black"/>
</svg>
