<svg width="48" height="39" viewBox="0 0 48 39" fill="none" xmlns="http://www.w3.org/2000/svg">
<path d="M44.8 6.4H3.2C2.35131 6.4 1.53737 6.06286 0.937258 5.46274C0.337142 4.86263 0 4.04869 0 3.2C0 2.35131 0.337142 1.53737 0.937258 0.937258C1.53737 0.337142 2.35131 0 3.2 0H44.8C45.6487 0 46.4626 0.337142 47.0627 0.937258C47.6629 1.53737 48 2.35131 48 3.2C48 4.04869 47.6629 4.86263 47.0627 5.46274C46.4626 6.06286 45.6487 6.4 44.8 6.4ZM44.8 38.4H3.2C2.35131 38.4 1.53737 38.0629 0.937258 37.4627C0.337142 36.8626 0 36.0487 0 35.2C0 34.3513 0.337142 33.5374 0.937258 32.9373C1.53737 32.3371 2.35131 32 3.2 32H44.8C45.6487 32 46.4626 32.3371 47.0627 32.9373C47.6629 33.5374 48 34.3513 48 35.2C48 36.0487 47.6629 36.8626 47.0627 37.4627C46.4626 38.0629 45.6487 38.4 44.8 38.4ZM44.8 22.4H3.2C2.35131 22.4 1.53737 22.0629 0.937258 21.4627C0.337142 20.8626 0 20.0487 0 19.2C0 18.3513 0.337142 17.5374 0.937258 16.9373C1.53737 16.3371 2.35131 16 3.2 16H44.8C45.6487 16 46.4626 16.3371 47.0627 16.9373C47.6629 17.5374 48 18.3513 48 19.2C48 20.0487 47.6629 20.8626 47.0627 21.4627C46.4626 22.0629 45.6487 22.4 44.8 22.4Z" fill="black"/>
</svg>
