<svg width="14" height="15" viewBox="0 0 14 15" fill="none" xmlns="http://www.w3.org/2000/svg">
<path fill-rule="evenodd" clip-rule="evenodd" d="M13.1754 10.3726C12.5276 10.0235 11.8706 9.62593 11.192 9.34873C9.8816 8.81395 9.97027 10.394 9.03319 10.9074C7.70411 11.6353 3.37899 7.42053 3.57406 6.11297C3.72526 5.10126 4.92274 5.04993 4.5802 3.8133C4.39727 3.15066 4.06966 2.49827 3.82419 1.85989C3.49472 1.00405 3.36032 0.455269 2.40084 0.502868C1.71017 0.536467 1.24909 0.832324 0.823487 1.38671C-0.327327 2.88653 -0.153725 4.90994 0.620018 6.55535C2.79285 11.1752 7.22623 14.2001 10.4136 14.4884C11.6232 14.5967 13.3163 13.9415 13.7485 12.6293L13.6747 12.8514L13.7494 12.6284L13.8241 12.4006L13.7494 12.6256C14.1302 11.4683 14.1759 10.9111 13.1754 10.3726ZM13.6747 12.8514C13.6654 12.8804 13.6635 12.885 13.6747 12.8514ZM13.8241 12.4006C13.8315 12.3764 13.8306 12.3782 13.8241 12.4006Z" fill="black"/>
</svg>
