<svg width="12" height="12" viewBox="0 0 12 12" fill="none" xmlns="http://www.w3.org/2000/svg">
<path fill-rule="evenodd" clip-rule="evenodd" d="M11.2932 8.4622C10.738 8.16301 10.1748 7.82222 9.59316 7.58463C8.46994 7.12624 8.54595 8.4806 7.74274 8.92059C6.60352 9.54457 2.89627 5.93188 3.06348 4.81111C3.19308 3.94394 4.21949 3.89994 3.92589 2.83997C3.76909 2.27199 3.48828 1.71281 3.27788 1.16562C2.99548 0.432045 2.88027 -0.0383406 2.05786 0.00245817C1.46586 0.0312573 1.07065 0.28485 0.705846 0.760035C-0.280566 2.0456 -0.131764 3.77994 0.531444 5.1903C2.39387 9.15018 6.19392 11.7429 8.92595 11.9901C9.96276 12.0829 11.414 11.5213 11.7844 10.3965L11.7212 10.5869L11.7852 10.3957L11.8492 10.2006L11.7852 10.3933C12.1116 9.40137 12.1508 8.92379 11.2932 8.4622ZM11.7212 10.5869C11.7132 10.6117 11.7116 10.6157 11.7212 10.5869ZM11.8492 10.2006C11.8556 10.1798 11.8548 10.1814 11.8492 10.2006Z" fill="white"/>
</svg>
